<svg viewBox="0 0 64 64" xmlns="http://www.w3.org/2000/svg">
  <title>أيقونة كاشف</title>
  <style>
    .bg { fill: #ffffff; } /* light: surface */
    .fg-stroke { stroke: #4a90e2; } /* light theme primary */
    @media (prefers-color-scheme: dark) {
      .bg { fill: #272d38; } /* dark theme surface */
      .fg-stroke { stroke: #6ea8f7; } /* dark theme primary */
    }
  </style>
  
  <rect class="bg" width="64" height="64" rx="14"/>
  
  <g class="fg-stroke" fill="none" stroke-linecap="round" stroke-linejoin="round" stroke-width="4">
    <!-- Scanning Frame -->
    <path d="M16 4 H 4 V 16" />
    <path d="M48 4 H 60 V 16" />
    <path d="M16 60 H 4 V 48" />
    <path d="M48 60 H 60 V 48" />

    <!-- Processor Body -->
    <rect x="18" y="18" width="28" height="28" rx="2" />
    <rect x="26" y="26" width="12" height="12" rx="2" />

    <!-- Processor Legs (thinner stroke) -->
    <g stroke-width="3.5">
      <path d="M24 18v-4" />
      <path d="M32 18v-4" />
      <path d="M40 18v-4" />
      <path d="M24 46v4" />
      <path d="M32 46v4" />
      <path d="M40 46v4" />
      <path d="M18 24h-4" />
      <path d="M18 32h-4" />
      <path d="M18 40h-4" />
      <path d="M46 24h4" />
      <path d="M46 32h4" />
      <path d="M46 40h4" />
    </g>
  </g>
</svg>